<svg width="665.56" height="683.293" viewBox="0 0 176.096 180.788" version="1.1" id="svg1143" xml:space="preserve" xmlns="http://www.w3.org/2000/svg">
    <g id="layer1" transform="translate(-16.495 -9.088)">
        <g id="g1153" transform="matrix(.34394 0 0 .35445 16.495 8.744)">
            <path class="st0" d="M512 19.25C512 9.15 503.805.971 493.713.971H308.866v73.652a31.677 31.677 0 0 1 15.481-4.008c17.623 0 31.919 14.287 31.919 31.923 0 17.619-14.288 31.914-31.919 31.914a31.856 31.856 0 0 1-15.481-3.999v73.644h73.652a31.767 31.767 0 0 0-4.008 15.476c0 17.635 14.288 31.923 31.923 31.923 17.627 0 31.914-14.288 31.914-31.923 0-5.612-1.458-10.89-3.999-15.476H512Z" id="path1149"/>
            <path class="st0" d="M429.616 275.37h-92.794a9.178 9.178 0 0 0-7.901 4.504l.09-.154-.106.171a9.17 9.17 0 0 0-.106 9.107l5.849 10.532c1.311 2.37 1.954 4.863 1.963 7.583-.008 4.203-1.621 8.08-4.586 11.062-2.981 2.965-6.866 4.578-11.062 4.594-4.203-.017-8.088-1.629-11.078-4.594l.012.017c-2.974-2.998-4.582-6.883-4.59-11.078a15.522 15.522 0 0 1 1.958-7.591l5.853-10.524a9.162 9.162 0 0 0-.119-9.124 9.172 9.172 0 0 0-7.9-4.504h-69.432v-37.184c12.548-.196 24.4-5.14 33.278-14.035 9.09-9.066 14.125-21.227 14.116-34.072.008-12.862-5.03-25.023-14.116-34.081-8.871-8.896-20.726-13.832-33.278-14.027V81.416c-.004-5.066-4.11-9.172-9.176-9.172H34.548c-9.204-.007-17.94 3.601-24.432 10.109C3.669 88.805.008 97.659 0 106.798v369.686a34.367 34.367 0 0 0 10.116 24.428c6.452 6.443 15.293 10.108 24.432 10.117h369.726c9.115-.008 17.961-3.674 24.404-10.117 6.509-6.5 10.117-15.224 10.109-24.428V284.542a9.17 9.17 0 0 0-9.171-9.172zM28.37 106.798a6.09 6.09 0 0 1 1.792-4.366c.835-.831 2.272-1.825 4.386-1.825h172.747v73.603c0 1.776.941 3.413 2.468 4.317a5.03 5.03 0 0 0 2.537.685c.839 0 1.674-.204 2.432-.627l10.528-5.849a19.6 19.6 0 0 1 9.608-2.485c5.29 0 10.271 2.061 14.014 5.8a19.738 19.738 0 0 1 5.808 14.027 19.711 19.711 0 0 1-5.8 14.01 19.715 19.715 0 0 1-14.022 5.808c-3.409 0-6.639-.839-9.604-2.485l-10.536-5.849a4.95 4.95 0 0 0-2.427-.627c-.88 0-1.756.228-2.537.693a4.994 4.994 0 0 0-2.468 4.309v73.603h-45.575c.09-1.133.134-2.264.134-3.38 0-11.77-4.582-22.824-12.894-31.124-8.304-8.317-19.358-12.894-31.128-12.894-11.766 0-22.819 4.578-31.12 12.886-8.32 8.3-12.902 19.362-12.898 31.124 0 1.124.044 2.249.134 3.389H28.37Zm178.926 375.868H34.548c-2.114 0-3.551-.994-4.366-1.8-.826-.831-1.812-2.273-1.812-4.382V303.725h73.599a5 5 0 0 0 4.375-7.429l-5.844-10.532a19.625 19.625 0 0 1-2.489-9.604 19.788 19.788 0 0 1 5.8-14.019c3.758-3.738 8.74-5.808 14.022-5.808s10.264 2.07 14.01 5.8c3.743 3.755 5.808 8.74 5.812 14.018a19.705 19.705 0 0 1-2.477 9.604l-5.857 10.532a4.997 4.997 0 0 0 .062 4.969 5.003 5.003 0 0 0 4.313 2.468h73.599v45.59a43.114 43.114 0 0 0-3.376-.13c-11.774 0-22.828 4.578-31.12 12.886-8.324 8.308-12.902 19.362-12.894 31.124-.008 11.762 4.57 22.824 12.887 31.124 8.3 8.317 19.354 12.894 31.128 12.894 1.124 0 2.252-.041 3.376-.13zm203.128-6.182c0 2.109-.993 3.543-1.808 4.366-.831.823-2.265 1.817-4.374 1.817H231.496v-73.603a4.984 4.984 0 0 0-2.468-4.309 4.95 4.95 0 0 0-2.537-.692c-.835 0-1.674.204-2.428.627l-10.544 5.849a19.546 19.546 0 0 1-9.6 2.484c-5.282 0-10.264-2.068-14.01-5.8a19.743 19.743 0 0 1-5.812-14.019 19.746 19.746 0 0 1 5.808-14.018 19.76 19.76 0 0 1 14.015-5.816c3.385 0 6.618.839 9.6 2.484l10.54 5.857a5.04 5.04 0 0 0 4.969-.056 5.019 5.019 0 0 0 2.468-4.318v-73.611h45.578a43.281 43.281 0 0 0-.134 3.388c-.004 11.754 4.574 22.808 12.886 31.116 8.308 8.325 19.366 12.903 31.132 12.903 11.766 0 22.82-4.578 31.129-12.894 8.316-8.3 12.886-19.354 12.886-31.124a43.4 43.4 0 0 0-.13-3.388h45.582v172.757z" id="path1151"/>
        </g>
        <path fill="#f11" d="M155.57 56.438q0-6.124 1.057-8.81 1.055-2.685 4.47-5.857 2.981-2.722 4.546-4.727 1.564-2.006 1.562-4.573 0-3.1-1.999-5.141-1.998-2.042-5.563-2.042-3.709 0-5.637 2.344-1.928 2.344-2.722 4.763l-7.492-3.326q1.527-4.84 5.599-8.393 4.071-3.553 10.252-3.553 7.634 0 11.744 4.424 4.11 4.425 4.106 10.621 0 3.78-1.561 6.466-1.562 2.686-4.91 6.085-3.563 3.554-4.325 5.408-.761 1.854-.765 6.311zm4.073 18.146q-2.4 0-4.107-1.778-1.707-1.778-1.71-4.27 0-2.495 1.71-4.274 1.71-1.778 4.107-1.775 2.399 0 4.11 1.778 1.71 1.779 1.706 4.27 0 2.496-1.71 4.274t-4.106 1.775z" id="path1164" style="stroke-width:2.96579"/>
        <path style="fill:#4a0;stroke-width:.940917" d="M42.044 133.87c-5.523 3.095-5.049 8.721-4.707 14.238v224.966c19.297.699 39.133.1 58.637.3-.073-11.806 1.436-24.39 7.99-34.721 11.737-20.567 36.837-33.285 60.25-27.838 27.495 4.887 47.313 32.338 46.244 59.675-.076 6.062 10.136 1.441 14.421 2.883 14.8-.2 29.93.4 44.523-.3V272.167c2.205-3.882 6.946-5.151 10.695-2.648 9.148 4.316 18.126 11.708 28.974 9.576 16.405-1.75 26.327-21.67 19.474-36.284-5.379-13.706-23.75-20.709-36.26-12.047-5.973 2.425-11.234 7.686-17.846 7.877-5.815-.789-4.017-8.516-4.754-12.573-.78-30.719.25-61.77-.583-92.286-75.68.059-151.408-.117-227.058.088z" id="path467" transform="matrix(.26458 0 0 .26458 16.495 9.088)"/>
        <path style="fill:#4a0;stroke-width:.940917;stroke:#000;stroke-opacity:1" d="M152.605 342.692c-14.275-.287-26.188 13.347-24.75 27.397.023 11.3 10.239 19.497 10.903 30.483-2.066 6.833-11.242 4.266-16.501 5.022-28.266.416-56.86-.332-84.92.412.279 77.576-.649 155.17.74 232.735-.75 5.105 5.348 6.635 9.267 5.859 73.914 1.001 147.84.522 221.758.698.7-19.924.1-40.387.3-60.518-12.456.125-25.615-2.759-35.988-10.32-19.331-13.073-28.944-38.102-24.282-60.84 4.125-24.303 25.245-44.621 50.008-46.79 3.31-.641 7.089.12 10.262-.606-.2-20.13.4-40.593-.3-60.518-31.873-.393-63.802.829-95.642-.72-3.951.458-7.533-3.054-5.813-7.068 3.623-11.331 13.44-21.506 10.475-34.18-1.675-12.378-13.042-21.732-25.517-21.046z" id="path538" transform="matrix(.26458 0 0 .26458 16.495 9.088)"/>
        <path style="fill:#4a0;stroke:#000;stroke-width:.940917;stroke-opacity:1" d="M301.264 406.006c-.397 32.613.807 65.327-.771 97.883.704 4.621-4.035 8.6-8.287 6.527-10.15-4.516-19.928-13.621-31.892-10.627-17.887 2.689-26.684 26.242-16.28 40.573 6.627 9.735 20.258 14.711 31.07 8.939 6.98-2.537 13.025-8.17 20.359-9.286 4.828 1.38 6.99 6.111 5.801 10.929.201 31.41-.4 63.151.3 94.354 74.575-.27 149.166.632 223.731-.72 5.23.904 8.49-4.654 7.395-9.308 1.19-76.413.406-152.844.64-229.264-19.205-.7-38.947-.1-58.358-.3-.866 12.85-2.565 26.678-10.47 37.578-10.863 16.354-30.306 27.302-50.185 25.343-30.914-.157-56.427-30.692-54.117-60.942-1.571-4.484-10.788-.76-15.354-1.979-14.483.2-29.306-.398-43.582.3z" id="path3606" transform="matrix(.26458 0 0 .26458 16.495 9.088)"/>
    </g>
    <style type="text/css" id="style1147">
        .st0{fill:#000}
    </style>
</svg>
