<svg xmlns="http://www.w3.org/2000/svg" width="800" height="800" viewBox="0 0 106.668 106.667" xml:space="preserve">
    <path d="M79.887 42.391c-.991 0-2.058.299-2.676.748l.449 1.179c.468-.356 1.215-.58 1.889-.58 1.178.019 1.776.654 1.776 1.608 0 .841-.469 1.57-1.309 2.562-.937 1.122-1.272 2.226-1.16 3.235l.038.486h1.458l-.02-.486c-.058-.954.244-1.776 1.065-2.749.897-1.066 1.609-1.981 1.609-3.254.004-1.422-.97-2.749-3.119-2.749zM79.604 53.068c-.652 0-1.122.486-1.122 1.178 0 .654.449 1.159 1.104 1.159.69 0 1.123-.505 1.123-1.159 0-.692-.449-1.178-1.105-1.178z"/>
    <path d="M106.656 23.75a1.992 1.992 0 0 0-.598-1.518 2 2 0 0 0-2.21-.388H91.562a2 2 0 0 0 0 4h8.2L87.84 38.12a13.668 13.668 0 0 0-8.036-2.614c-7.587 0-13.759 6.172-13.759 13.759 0 3.145 1.072 6.037 2.854 8.357l-3.869 3.983-9.961-6.297a2 2 0 0 0-2.829.742L40.12 78.558l-8.977-19.077a1.998 1.998 0 0 0-2.497-1.026l-27.333 10a1.999 1.999 0 1 0 1.375 3.755l25.615-9.372L38.19 83.85a1.996 1.996 0 0 0 1.756 1.147l.054.001a2 2 0 0 0 1.761-1.053l12.983-24.111 9.521 6.019a2.001 2.001 0 0 0 2.503-.297l5-5.147a13.67 13.67 0 0 0 8.036 2.613c7.587 0 13.759-6.172 13.759-13.759 0-3.145-1.071-6.037-2.854-8.357l11.958-12.312v8.352a2 2 0 0 0 4 0V23.844c-.001-.032-.009-.063-.011-.094zM79.667 59.084c-5.386 0-9.751-4.366-9.751-9.751s4.365-9.751 9.751-9.751 9.751 4.366 9.751 9.751-4.365 9.751-9.751 9.751z"/>
</svg>
